<svg xmlns="http://www.w3.org/2000/svg" xmlns:xlink="http://www.w3.org/1999/xlink" width="302" zoomAndPan="magnify" viewBox="0 0 226.5 141.750002" height="188" preserveAspectRatio="xMidYMid meet" version="1.0"><defs><clipPath id="6beb66c377"><path d="M 2.160156 66 L 41 66 L 41 82 L 2.160156 82 Z M 2.160156 66 " clip-rule="nonzero"/></clipPath><clipPath id="151f8ada8e"><path d="M 126 4 L 224.421875 4 L 224.421875 137.554688 L 126 137.554688 Z M 126 4 " clip-rule="nonzero"/></clipPath><clipPath id="0e8510ce66"><path d="M 53 3.601562 L 204 3.601562 L 204 132 L 53 132 Z M 53 3.601562 " clip-rule="nonzero"/></clipPath></defs><g clip-path="url(#6beb66c377)"><path fill="#ffffff" d="M 40.167969 73.980469 C 40.167969 69.960938 36.910156 66.703125 32.890625 66.703125 L 9.441406 66.703125 C 5.421875 66.703125 2.164062 69.960938 2.164062 73.980469 C 2.164062 78 5.421875 81.257812 9.441406 81.257812 L 32.890625 81.257812 C 36.910156 81.257812 40.167969 78 40.167969 73.980469 " fill-opacity="1" fill-rule="nonzero"/></g><path fill="#ffffff" d="M 56.316406 95.808594 L 42.6875 95.808594 C 38.667969 95.808594 35.410156 99.066406 35.410156 103.089844 C 35.410156 107.105469 38.667969 110.363281 42.6875 110.363281 L 56.316406 110.363281 C 60.335938 110.363281 63.59375 107.105469 63.59375 103.089844 C 63.59375 99.066406 60.335938 95.808594 56.316406 95.808594 " fill-opacity="1" fill-rule="nonzero"/><g clip-path="url(#151f8ada8e)"><path fill="#d9d9d9" d="M 167.671875 4.476562 C 198.445312 20.527344 212.175781 57.816406 198.367188 90.304688 C 186.085938 119.183594 155.976562 135.023438 126.320312 130.441406 C 135.515625 135.175781 145.9375 137.847656 156.988281 137.847656 C 194.054688 137.847656 224.097656 107.800781 224.097656 70.738281 C 224.097656 37.308594 199.660156 9.59375 167.671875 4.476562 " fill-opacity="1" fill-rule="nonzero"/></g><g clip-path="url(#0e8510ce66)"><path fill="#ffffff" d="M 152.410156 76.675781 C 139.171875 72.222656 130.136719 66.035156 130.136719 54.03125 C 130.136719 43.144531 137.808594 34.605469 151.050781 32.007812 L 151.050781 20.25 L 163.175781 20.25 L 163.175781 31.140625 C 171.46875 31.511719 177.035156 33.242188 181.121094 35.222656 L 177.53125 49.207031 C 174.3125 47.84375 168.621094 45 159.710938 45 C 151.667969 45 149.070312 48.464844 149.070312 51.925781 C 149.070312 56.007812 153.402344 58.609375 163.917969 62.570312 C 178.644531 67.765625 184.582031 74.570312 184.582031 85.710938 C 184.582031 96.722656 176.789062 106.128906 162.558594 108.601562 L 162.558594 121.222656 L 150.429688 121.222656 L 150.429688 109.464844 C 142.140625 109.09375 134.097656 106.867188 129.394531 104.144531 L 133.109375 89.671875 C 138.304688 92.511719 145.605469 95.113281 153.648438 95.113281 C 160.703125 95.113281 165.527344 92.390625 165.527344 87.441406 C 165.527344 82.738281 161.566406 79.769531 152.410156 76.675781 Z M 198.367188 90.304688 C 212.175781 57.816406 198.445312 20.527344 167.671875 4.476562 C 164.195312 3.917969 160.625 3.625 156.988281 3.625 C 138.582031 3.625 121.917969 11.042969 109.792969 23.039062 L 118.140625 23.039062 C 122.15625 23.039062 125.414062 26.296875 125.414062 30.320312 C 125.414062 34.335938 122.15625 37.59375 118.140625 37.59375 L 75.257812 37.59375 C 71.238281 37.59375 67.980469 40.851562 67.980469 44.871094 C 67.980469 48.890625 71.238281 52.148438 75.257812 52.148438 L 103.234375 52.148438 C 107.253906 52.148438 110.511719 55.40625 110.511719 59.425781 C 110.511719 63.441406 107.253906 66.703125 103.234375 66.703125 L 60.351562 66.703125 C 56.332031 66.703125 53.074219 69.960938 53.074219 73.980469 C 53.074219 78 56.332031 81.257812 60.351562 81.257812 L 110.894531 81.257812 C 114.914062 81.257812 118.171875 84.515625 118.171875 88.535156 C 118.171875 92.550781 114.914062 95.808594 110.894531 95.808594 L 79.785156 95.808594 C 75.765625 95.808594 72.507812 99.066406 72.507812 103.089844 C 72.507812 107.105469 75.765625 110.363281 79.785156 110.363281 L 102.828125 110.363281 C 108.972656 118.746094 117.015625 125.652344 126.320312 130.441406 C 155.976562 135.023438 186.085938 119.183594 198.367188 90.304688 " fill-opacity="1" fill-rule="nonzero"/></g></svg>